# xmcd
#
# Track frame offsets:
#	150
#	12800
#	25417
#	38752
#	49435
#	60840
#	74600
#	88785
#	100167
#	112250
#	123402
#	135270
#	147275
#	157945
#	168442
#	179322
#	189905
#	202552
#	215215
#	228395
#	239875
#	250835
#	260115
#	269350
#	278907
#	290232
#	301685
#	313800
#	324817
#	337330
#
# Disc length: 4651 seconds
#
# Revision: 1
# Processed by: cddbd v1.4PL0 Copyright (c) Steve Scherf et al.
# Submitted via: audiograbber 1.80
#
DISCID=c412291e
DTITLE=big bill lister - there's a tear in my beer
DYEAR=1900
DGENRE=
TTITLE0=help wanted 1951
TTITLE1=beer drinkin' blues 1951
TTITLE2=lovin' country style 1951
TTITLE3=rc cola and moon pie 1951
TTITLE4=countryfied 1951
TTITLE5=the little house we built (just o'er the hill) 1951
TTITLE6=there's another in your heart 1951
TTITLE7=what the hecke is goin' on 1951
TTITLE8=double crossin' lies 1953
TTITLE9=ship of love 1952
TTITLE10=a nickel for a dozen roses 1951
TTITLE11=all i want to hear you say is you love me 1952
TTITLE12=there's a tear in my beer 1952
TTITLE13=one more beer (then i'm goin' home) 1951
TTITLE14=give  it back to the indians 1952
TTITLE15=every tear i cry 1953
TTITLE16=haunted hungry heart 19999
TTITLE17=in the shadow of the pine 1953
TTITLE18=another night to wonder 1999
TTITLE19=blowing the suds off my beer 1953
TTITLE20=the human thing to do 1999
TTITLE21=happy lonesome 1999
TTITLE22=all dressed up (and nowhere to go) 1999
TTITLE23=hog calling song 1999
TTITLE24=this time sweetheart 1949
TTITLE25=local yokel 1949
TTITLE26=daddy, oh daddy (& del dunbar) 1949
TTITLE27=a plane to arkansas (&del dunbar) 1949
TTITLE28=why don't you haul off and love me (del dunbar) 1949
TTITLE29=there's million ways to say i love you (del dunbar) 1953
EXTD=
EXTT0=
EXTT1=
EXTT2=
EXTT3=
EXTT4=
EXTT5=
EXTT6=
EXTT7=
EXTT8=
EXTT9=
EXTT10=
EXTT11=
EXTT12=
EXTT13=
EXTT14=
EXTT15=
EXTT16=
EXTT17=
EXTT18=
EXTT19=
EXTT20=
EXTT21=
EXTT22=
EXTT23=
EXTT24=
EXTT25=
EXTT26=
EXTT27=
EXTT28=
EXTT29=
PLAYORDER=
